<svg xmlns="http://www.w3.org/2000/svg" width="1600" height="455" viewBox="0 0 1600 455"><defs><linearGradient id="bg" x1="0" y1="0" x2="1" y2="1"><stop stop-color="#050c12"/><stop offset=".6" stop-color="#07131b"/><stop offset="1" stop-color="#090f15"/></linearGradient><pattern id="grid" width="42" height="42" patternUnits="userSpaceOnUse"><path d="M42 0H0V42" fill="none" stroke="#0d2430"/></pattern></defs><rect width="1600" height="455" rx="28" fill="url(#bg)"/><rect width="1600" height="455" rx="28" fill="url(#grid)" opacity=".3"/><rect x="1" y="1" width="1598" height="453" rx="27" fill="none" stroke="#1d5266"/><text x="36" y="44" fill="#16d9ff" font-family="monospace" font-size="15">› core_model</text><text x="255" y="44" fill="#879eaa" font-family="Arial" font-size="12">Planning facts remain different objects with clear semantics and lineage.</text>
<g transform="translate(35 75)"><rect width="280" height="112" rx="15" fill="#08141d" stroke="#1d5266"/><rect width="4" height="112" rx="2" fill="#16d9ff"/><text x="18" y="25" fill="#16d9ff" font-family="monospace" font-size="9">ESTIMATE</text><text x="18" y="51" fill="#f4f8fb" font-family="Arial" font-size="15" font-weight="700">revised effort</text><text x="18" y="76" fill="#879eaa" font-family="Arial" font-size="10.5">append-only history · multiple sources</text></g><g transform="translate(330 75)"><rect width="280" height="112" rx="15" fill="#08141d" stroke="#1d5266"/><rect width="4" height="112" rx="2" fill="#8b5cf6"/><text x="18" y="25" fill="#8b5cf6" font-family="monospace" font-size="9">ASSUMPTIONS</text><text x="18" y="51" fill="#f4f8fb" font-family="Arial" font-size="15" font-weight="700">explicit basis</text><text x="18" y="76" fill="#879eaa" font-family="Arial" font-size="10.5">versioned context · time-boxed validity</text></g><g transform="translate(625 75)"><rect width="280" height="112" rx="15" fill="#08141d" stroke="#1d5266"/><rect width="4" height="112" rx="2" fill="#ffb547"/><text x="18" y="25" fill="#ffb547" font-family="monospace" font-size="9">RESOURCE DEMAND</text><text x="18" y="51" fill="#f4f8fb" font-family="Arial" font-size="15" font-weight="700">what work needs</text><text x="18" y="76" fill="#879eaa" font-family="Arial" font-size="10.5">roles · skills · quantity · dates</text></g><g transform="translate(920 75)"><rect width="280" height="112" rx="15" fill="#08141d" stroke="#1d5266"/><rect width="4" height="112" rx="2" fill="#2fe3b0"/><text x="18" y="25" fill="#2fe3b0" font-family="monospace" font-size="9">ALLOCATION</text><text x="18" y="51" fill="#f4f8fb" font-family="Arial" font-size="15" font-weight="700">what is assigned</text><text x="18" y="76" fill="#879eaa" font-family="Arial" font-size="10.5">capacity · person · period</text></g><g transform="translate(1215 75)"><rect width="350" height="112" rx="15" fill="#08141d" stroke="#1d5266"/><rect width="4" height="112" rx="2" fill="#55b6ff"/><text x="18" y="25" fill="#55b6ff" font-family="monospace" font-size="9">PROVIDER FACTS</text><text x="18" y="51" fill="#f4f8fb" font-family="Arial" font-size="15" font-weight="700">actual execution</text><text x="18" y="76" fill="#879eaa" font-family="Arial" font-size="10.5">Jira Cloud / Planner Native</text></g>
<g transform="translate(500 275)"><rect width="330" height="76" rx="13" fill="#091720" stroke="#16d9ff" stroke-opacity=".65"/><text x="165" y="30" text-anchor="middle" fill="#16d9ff" font-family="monospace" font-size="9">DETERMINISTIC PLANNING</text><text x="165" y="54" text-anchor="middle" fill="#ccd9df" font-family="Arial" font-size="10.5">resource-constrained · evidence-aware</text></g><g transform="translate(900 275)"><rect width="230" height="76" rx="13" fill="#091720" stroke="#8b5cf6" stroke-opacity=".65"/><text x="115" y="30" text-anchor="middle" fill="#8b5cf6" font-family="monospace" font-size="9">SCENARIO</text><text x="115" y="54" text-anchor="middle" fill="#ccd9df" font-family="Arial" font-size="10.5">planning alternative</text></g><g transform="translate(1200 275)"><rect width="230" height="76" rx="13" fill="#091720" stroke="#2fe3b0" stroke-opacity=".65"/><text x="115" y="30" text-anchor="middle" fill="#2fe3b0" font-family="monospace" font-size="9">BASELINE</text><text x="115" y="54" text-anchor="middle" fill="#ccd9df" font-family="Arial" font-size="10.5">approved plan</text></g>
<path d="M175 187 C175 240 665 220 665 275 M470 187 C470 240 665 220 665 275 M765 187 L665 275 M1060 187 C1060 240 665 220 665 275 M1388 187 C1388 240 665 220 665 275" fill="none" stroke="#2a657a" stroke-width="2"/><path d="M830 313H900 M1130 313H1200" stroke="#2c7087" stroke-width="2"/></svg>