<svg xmlns="http://www.w3.org/2000/svg" width="1200" height="310" viewBox="0 0 1200 310"><rect width="1200" height="310" rx="26" fill="#0d1117" stroke="#30363d"/><text x="65" y="62" fill="#f0f6fc" font-family="Arial" font-size="24" font-weight="700">Decision path</text><text x="65" y="88" fill="#8b949e" font-family="monospace" font-size="13">keep concepts separate until the point they actually become commitments</text><g transform="translate(65 118)"><rect width="163.33333333333334" height="120" rx="18" fill="#111827" stroke="#30363d"/><circle cx="81.66666666666667" cy="34" r="18" fill="#58a6ff" opacity="0.18"/><text x="81.66666666666667" y="40" text-anchor="middle" fill="#58a6ff" font-family="monospace" font-size="13">01</text><text x="81.66666666666667" y="82" text-anchor="middle" fill="#f0f6fc" font-family="Arial" font-size="16" font-weight="700">Estimate</text></g><g transform="translate(246.33333333333334 118)"><rect width="163.33333333333334" height="120" rx="18" fill="#111827" stroke="#30363d"/><circle cx="81.66666666666667" cy="34" r="18" fill="#58a6ff" opacity="0.22999999999999998"/><text x="81.66666666666667" y="40" text-anchor="middle" fill="#58a6ff" font-family="monospace" font-size="13">02</text><text x="81.66666666666667" y="82" text-anchor="middle" fill="#f0f6fc" font-family="Arial" font-size="16" font-weight="700">Demand</text></g><g transform="translate(427.6666666666667 118)"><rect width="163.33333333333334" height="120" rx="18" fill="#111827" stroke="#30363d"/><circle cx="81.66666666666667" cy="34" r="18" fill="#58a6ff" opacity="0.28"/><text x="81.66666666666667" y="40" text-anchor="middle" fill="#58a6ff" font-family="monospace" font-size="13">03</text><text x="81.66666666666667" y="82" text-anchor="middle" fill="#f0f6fc" font-family="Arial" font-size="16" font-weight="700">Scenario</text></g><g transform="translate(609 118)"><rect width="163.33333333333334" height="120" rx="18" fill="#111827" stroke="#30363d"/><circle cx="81.66666666666667" cy="34" r="18" fill="#58a6ff" opacity="0.33"/><text x="81.66666666666667" y="40" text-anchor="middle" fill="#58a6ff" font-family="monospace" font-size="13">04</text><text x="81.66666666666667" y="82" text-anchor="middle" fill="#f0f6fc" font-family="Arial" font-size="16" font-weight="700">Forecast</text></g><g transform="translate(790.3333333333334 118)"><rect width="163.33333333333334" height="120" rx="18" fill="#111827" stroke="#30363d"/><circle cx="81.66666666666667" cy="34" r="18" fill="#58a6ff" opacity="0.38"/><text x="81.66666666666667" y="40" text-anchor="middle" fill="#58a6ff" font-family="monospace" font-size="13">05</text><text x="81.66666666666667" y="82" text-anchor="middle" fill="#f0f6fc" font-family="Arial" font-size="16" font-weight="700">Approval</text></g><g transform="translate(971.6666666666667 118)"><rect width="163.33333333333334" height="120" rx="18" fill="#111827" stroke="#30363d"/><circle cx="81.66666666666667" cy="34" r="18" fill="#58a6ff" opacity="0.43"/><text x="81.66666666666667" y="40" text-anchor="middle" fill="#58a6ff" font-family="monospace" font-size="13">06</text><text x="81.66666666666667" y="82" text-anchor="middle" fill="#f0f6fc" font-family="Arial" font-size="16" font-weight="700">Baseline</text></g><path d="M231.33333333333334 178h12" stroke="#6e7681" stroke-width="2"/><path d="M239.33333333333334 173l6 5-6 5" fill="none" stroke="#6e7681" stroke-width="2"/><path d="M412.6666666666667 178h12" stroke="#6e7681" stroke-width="2"/><path d="M420.6666666666667 173l6 5-6 5" fill="none" stroke="#6e7681" stroke-width="2"/><path d="M594 178h12" stroke="#6e7681" stroke-width="2"/><path d="M602 173l6 5-6 5" fill="none" stroke="#6e7681" stroke-width="2"/><path d="M775.3333333333334 178h12" stroke="#6e7681" stroke-width="2"/><path d="M783.3333333333334 173l6 5-6 5" fill="none" stroke="#6e7681" stroke-width="2"/><path d="M956.6666666666667 178h12" stroke="#6e7681" stroke-width="2"/><path d="M964.6666666666667 173l6 5-6 5" fill="none" stroke="#6e7681" stroke-width="2"/></svg>