<svg xmlns="http://www.w3.org/2000/svg" width="1200" height="650" viewBox="0 0 1200 650">
<defs><linearGradient id="a"><stop stop-color="#58a6ff"/><stop offset="1" stop-color="#a371f7"/></linearGradient></defs>
<rect width="1200" height="650" rx="28" fill="#090d16"/>
<rect x="36" y="34" width="1128" height="582" rx="22" fill="#0d1117" stroke="#30363d"/>
<rect x="36" y="34" width="1128" height="50" rx="22" fill="#161b22"/><rect x="36" y="58" width="1128" height="26" fill="#161b22"/>
<circle cx="60" cy="59" r="5" fill="#f85149"/><circle cx="78" cy="59" r="5" fill="#f2cc60"/><circle cx="96" cy="59" r="5" fill="#3fb950"/>
<text x="125" y="64" fill="#8b949e" font-family="monospace" font-size="12">delivery-planner / portfolio</text>
<rect x="36" y="84" width="190" height="532" fill="#0b0f17"/>
<text x="62" y="122" fill="#58a6ff" font-family="monospace" font-size="11">WORKSPACE</text>
<text x="62" y="160" fill="#f0f6fc" font-family="Arial" font-size="14">Portfolio</text>
<text x="62" y="194" fill="#8b949e" font-family="Arial" font-size="14">Projects</text>
<text x="62" y="228" fill="#8b949e" font-family="Arial" font-size="14">People</text>
<text x="62" y="262" fill="#8b949e" font-family="Arial" font-size="14">Reports</text>
<text x="62" y="315" fill="#a371f7" font-family="monospace" font-size="11">PROJECT</text>
<text x="62" y="350" fill="#8b949e" font-family="Arial" font-size="14">Planning</text>
<text x="62" y="384" fill="#8b949e" font-family="Arial" font-size="14">Governance</text>
<text x="62" y="418" fill="#8b949e" font-family="Arial" font-size="14">Value</text>
<text x="258" y="128" fill="#f0f6fc" font-family="Arial" font-size="25" font-weight="700">Portfolio attention</text>
<text x="258" y="153" fill="#8b949e" font-family="monospace" font-size="11">facts, forecasts and approved baselines stay separate</text>
<g transform="translate(258 180)">
<rect width="200" height="92" rx="15" fill="#111827" stroke="#30363d"/><text x="18" y="27" fill="#8b949e" font-family="monospace" font-size="10">RELEASE READINESS</text><text x="18" y="60" fill="#f2cc60" font-family="Arial" font-size="22" font-weight="700">AT RISK</text>
</g>
<g transform="translate(474 180)">
<rect width="200" height="92" rx="15" fill="#111827" stroke="#30363d"/><text x="18" y="27" fill="#8b949e" font-family="monospace" font-size="10">CAPACITY COVERAGE</text><text x="18" y="60" fill="#58a6ff" font-family="Arial" font-size="22" font-weight="700">78%</text>
</g>
<g transform="translate(690 180)">
<rect width="200" height="92" rx="15" fill="#111827" stroke="#30363d"/><text x="18" y="27" fill="#8b949e" font-family="monospace" font-size="10">BASELINE CHANGES</text><text x="18" y="60" fill="#a371f7" font-family="Arial" font-size="22" font-weight="700">2</text>
</g>
<g transform="translate(906 180)">
<rect width="220" height="92" rx="15" fill="#111827" stroke="#30363d"/><text x="18" y="27" fill="#8b949e" font-family="monospace" font-size="10">OPEN DECISIONS</text><text x="18" y="60" fill="#3fb950" font-family="Arial" font-size="22" font-weight="700">4</text>
</g>
<g transform="translate(258 294)">
<rect width="560" height="270" rx="17" fill="#111827" stroke="#30363d"/>
<text x="20" y="34" fill="#f0f6fc" font-family="Arial" font-size="17" font-weight="700">Scenario timeline</text>
<text x="20" y="58" fill="#8b949e" font-family="monospace" font-size="10">resource-constrained forecast</text>
<line x1="20" y1="90" x2="530" y2="90" stroke="#30363d"/>
<text x="20" y="115" fill="#8b949e" font-family="monospace" font-size="10">API</text><rect x="105" y="104" width="245" height="16" rx="8" fill="#58a6ff" opacity=".85"/>
<text x="20" y="153" fill="#8b949e" font-family="monospace" font-size="10">WEB</text><rect x="105" y="142" width="310" height="16" rx="8" fill="#a371f7" opacity=".8"/>
<text x="20" y="191" fill="#8b949e" font-family="monospace" font-size="10">QA</text><rect x="180" y="180" width="225" height="16" rx="8" fill="#3fb950" opacity=".75"/>
<line x1="390" y1="82" x2="390" y2="218" stroke="#f2cc60" stroke-dasharray="4 4"/>
<text x="366" y="240" fill="#f2cc60" font-family="monospace" font-size="9">forecast</text>
</g>
<g transform="translate(838 294)">
<rect width="288" height="270" rx="17" fill="#111827" stroke="#30363d"/>
<text x="18" y="34" fill="#f0f6fc" font-family="Arial" font-size="17" font-weight="700">Attention</text>
<g transform="translate(18 62)"><circle cx="7" cy="7" r="6" fill="#f85149"/><text x="24" y="12" fill="#c9d1d9" font-family="Arial" font-size="12">Dependency moved</text></g>
<g transform="translate(18 101)"><circle cx="7" cy="7" r="6" fill="#f2cc60"/><text x="24" y="12" fill="#c9d1d9" font-family="Arial" font-size="12">Demand partially covered</text></g>
<g transform="translate(18 140)"><circle cx="7" cy="7" r="6" fill="#a371f7"/><text x="24" y="12" fill="#c9d1d9" font-family="Arial" font-size="12">Baseline change pending</text></g>
<g transform="translate(18 179)"><circle cx="7" cy="7" r="6" fill="#58a6ff"/><text x="24" y="12" fill="#c9d1d9" font-family="Arial" font-size="12">Provider capability partial</text></g>
</g>
</svg>